<svg xmlns="http://www.w3.org/2000/svg" viewBox="0 0 1024 1024" xml:space="preserve"><path d="M821.527 711.355c-3.704 1.39-5.935 3.99-7.565 7.657-1.111 2.498-3.822 4.278-5.93 6.023-7.797 6.459-15.714 12.59-25.407 16.551-6.941 2.836-14.737 2.862-20.904 6.162-7.646 4.092-13.2-1.325-19.688-1.27-6.874.06-13.724-.128-20.167-2.442-6.613-2.374-12.388-6.676-19.513-8.134-9.389-1.92-16.748 2.844-18.07 12.393-1.324 9.554 1.866 13.516 11.685 14.5.494.049 1.009.07 1.496-.007 9.35-1.496 18.99-.198 28.264-3.132 1.43-.452 1.486-1.511 2.582-1.963 4.23-1.742 8.412-2.009 12.262.266 4.726 2.793 7.528.756 10.002-2.985 1.733-.422 1.118 1.27 1.864 2.004 2.088-1.254 3.98-3.458 6.98-2.343-4.103 5.963-63.795 31.89-76.336 33.193l1.79 2.637c-2.973 1.538-5.964 2.079-9.016 1.28-1.355-.356.165-1.531.053-2.535-3.961 1.555-8.12.98-11.993 1.444-5.82.697-10.196-4.053-15.837-2.486-1.546.43-3.628-.211-4.072-2.674-.216-1.2-1.43-1.673-2.548-2.153-12.621-5.42-23.475-13.752-33.348-22.89-8.07-7.468-16.6-11.007-27.197-10.16-10.567.846-15.195 7.145-13.147 17.534.192.974.26 2.176.862 2.836 7.467 8.174 13.563 17.763 26.258 19.522 6.138.85 12.275 2.393 18.498 3.26 2.791.389 5.152.656 6.36-2.296 2.444.837.679 2.81.988 3.272 5.398 3.422 11.853 1.04 17.012 5.66-11.404 3.255-22.133 4.845-32.93 6.32-10.166 1.39-20.363 2.216-30.576 2.603-13.748.52-27.461.255-41.12-2.261-8.242-1.518-16.77-1.985-24.723-4.571-10.913-3.55-22.355-5.858-32.45-11.545-8.019-4.517-16.585-8.25-23.7-14.192-9.09-7.59-18.771-14.497-25.775-24.451-3.698-5.257-8.128-9.996-11.687-15.461-4.705-7.225-8.27-14.92-10.881-23.028-.882-2.74-4.123-4.736-2.212-8.677-12.835 2.786-23.32-3.225-34.183-7.093-15.046-5.359-29.022-12.988-41.965-22.31-10.152-7.314-20.063-14.995-29.731-22.937-11.944-9.812-22.354-21.008-31.086-33.946-4.917-7.287-9.47-14.746-14.058-22.213-3.075-5.005-5.143-10.432-6.93-15.968-.951-2.95-.962-6.154 1.828-8.092 3.602-2.501 9.23-1.793 11.691 1.027 5.575 6.386 10.86 13.09 17.69 18.213 8.485 6.363 17.612 11.047 28.782 9.214 3.94-.646 7.795-2.221 9.535-5.628 1.843-3.61.204-7.458-2.493-10.553-6.568-7.54-15.05-12.585-23.772-16.93-6.574-3.276-13.294-6.53-20.764-7.866-15.35-2.745-30.136-7.88-45.538-10.644-14.437-2.59-28.407-6.84-40.352-16.403-7.988-6.395-16.472-12.24-22.879-20.245-6.087-7.606-10.358-16.264-13.06-25.819-1.658-5.861-3.546-11.695-5.1-17.599-2.022-7.677-2.84-15.584-3.503-23.466-.303-3.61 4.02-8.553 7.21-8.724 4.142-.222 6.356 2.528 7.444 6.096 2.32 7.6 4.688 15.143 9.362 21.73 5.86 8.258 14.257 13.224 22.921 17.87 5.59 2.998 11.206 5.543 17.894 4.34 6.704-1.204 12.204-5.446 12.973-11.235.728-5.486.133-12.13-3.086-17.587-6.214-10.532-15.065-18.563-25.53-24.44-9.135-5.13-19.466-7.525-29.786-9.256-18.613-3.123-37.491-5.131-54.105-15.327-7.777-4.772-13.658-11.528-19.094-18.572-10.308-13.358-19.922-27.252-30.292-40.56-8-10.266-19.019-16.887-30.465-22.72-2.79-1.421-5.852-.834-8.84-.557-3.485.322-7.416-.05-8.026-3.926-.546-3.469.583-7.057 4.574-9.277 17.927-9.971 35.02-6.573 52.547 1.623 16.63 7.777 28.324 20.864 40.304 33.912 10.503 11.439 22.724 20.307 38.104 24.108 6.632 1.639 13.19.558 18.76-2.745 3.049-1.807 4.15-6.375 3.531-10.414-2.156-14.082-15.228-26.497-30.989-29.48-4.559-.862-9.163-1.483-13.722-2.345-2.675-.507-5.337-1.674-6.412-4.196-1.18-2.766 1.428-4.428 2.977-6.339 5.208-6.422 12.96-7.184 20.151-8.651 17.957-3.665 36.035-2.5 53.974.276 15.264 2.363 30.339 5.797 45.05 10.582 23.347 7.593 46.303 16.142 68.247 27.312 15.095 7.683 30.154 15.432 44.315 24.714 15.91 10.428 31.753 20.88 46.374 33.265 13.464 11.405 26.366 23.235 38.065 36.39a172.903 172.903 0 0 1 19 25.78c3.67-2.303 4.574-6.249 6.507-9.339 14.54-23.254 30.241-45.654 47.41-67.063 18.82-23.47 38.938-45.746 60.308-66.886 15.326-15.162 31.725-29.148 48.148-43.112 18.285-15.548 37.553-29.764 57.21-43.487 11.665-8.145 23.675-15.757 35.834-23.142 13.592-8.254 27.562-15.823 41.668-23.148 2.683-1.392 5.362-2.105 8.569-1.541 3.672.645 7.493.453 11.25.594 3.838.143 6.074 2.324 5.822 5.936-.225 3.223-.948 6.894-5.944 5.962-2.386-.445-4.606.55-6.585 1.773-17.594 10.868-31.417 25.373-41.432 43.453-3.41 6.156-4.68 13.003-5.582 19.899-.254 1.94.62 3.326 2.21 4.656 8.862 7.412 15.986 5.724 25.514.098 10.48-6.187 17.685-15.767 23.638-26.23 11.081-19.477 27.279-34.353 43.604-49.203 13.184-11.992 28.27-20.965 44.481-27.796 10.77-4.538 22.35-7.068 34.17-8.049a268.001 268.001 0 0 1 30.35-.805c2.58.078 5.872.22 6.594 3.321.729 3.131 2.743 6.748-.944 9.635-.797.624-1.443 1.36-2.568 1.276-9.15-.684-17.8 1.618-25.771 5.643-11.663 5.887-22.36 13.41-32.84 21.233-15.586 11.636-24.975 27.726-33.654 45.399 5.657-.369 9.245-3.587 13.041-5.776 14.791-8.53 30.153-15.857 45.596-23.084 15.326-7.171 30.82-14.132 45.502-22.483 12.827-7.296 23.32-17.98 33.262-28.833 3.927-4.287 6.065-10.211 9.102-15.537 7.302-.112 12.45 6.517 10.997 14.047-1.523 7.895-2.634 15.896-5.385 23.473-4.594 12.655-11.904 23.358-23.083 31.249-10.157 7.17-20.583 13.932-31.4 20.017-11.166 6.281-22.006 12.988-31.977 21.033-3.759 3.032-6.844 6.752-9.45 10.814-1.74 2.715-2.262 5.53.487 7.8-.062.603.02 1.014-.148 1.24-1.557 2.107-4.232 4.5-1.866 6.915 2.307 2.353 5.618 3.806 9.37 3.486 8.589-.732 14.212-5.99 18.71-12.535 4.751-6.917 10.33-13.39 12.31-21.982.5-2.171 2.093-4.564 4.84-5.35 2.938-.84 7.756 3.668 8.153 7.894.22 2.326.184 4.475 2.104 6.389 2.061 2.055.559 4.628-.574 6.456-9.242 14.923-15.875 31.337-25.75 45.851-11.857 17.428-25.394 33.193-45.996 40.966-12.979 4.897-25.48 5.648-38.313-1.203-12.652-6.755-22.289-16.463-28.813-28.716-4.523-8.495-3.537-18.446-1.876-27.912l-1.054-1.202c-5.737 6.266-10.932 13.162-17.332 18.654-10.564 9.065-22.685 16.02-34.498 23.396-7.605 4.75-15.916 7.874-23.827 11.748-8.334 4.08-17.306 7.272-26.202 10.322-13.19 4.522-24.667 12.24-36.006 20.025-5.032 3.455-8.35 8.837-10.36 14.81-1.562 4.641.145 8.746 6.882 12.738 13.755 8.152 26.566 5.513 37.029-7.323 4.718-5.79 9.076-11.874 13.553-17.858 10.92-14.598 25.675-24.26 41.81-31.93 12.384-5.888 25.484-9.459 39.361-9.165 8.592.182 16.496 3.447 24.542 5.983 4.591 1.446 4.742 7.103 8.836 9.44 1.755 1.001-3.71 4.578.657 6.786-3.311 2.945-6.497 4.17-10.098 3.009-13.587-4.382-24.828-.27-34.319 9.561-5.74 5.947-11.918 11.638-15.629 19.23-3.472 7.102-6.38 14.458-9.848 21.583-4.722 9.7-10.69 18.613-16.018 27.924-8.573 14.98-20.797 26.428-34.177 36.876-5.369 4.193-10.347 8.853-15.579 13.21-9.801 8.164-21.505 12.306-32.981 16.834-16.173 6.381-33.149 10.275-49.9 14.853-10.379 2.836-20.309 6.992-30.005 11.726-10.3 5.029-20.356 10.464-30.101 16.491-10.448 6.462-17.096 15.98-21.32 27.213-8.64 22.983-5.543 45.337 5.016 66.8 4.363 8.867 12.236 14.318 21.527 18.124 9.903 4.056 20.276 6.26 30.627 7.716 5.757.809 12.45.82 18.147-.765 9.047-2.517 18.184-4.981 26.748-9.35 9.584-4.89 19.942-8.82 30.78-8.977 12.972-.189 25.401 2.928 36.535 10.29 17.204 11.376 33.85 23.693 52.405 32.867 6.728 3.326 13.295 8.268 21.286 7.397 13.933-1.519 27.943-2.87 41.374-7.373 3.412-1.144 6.099-3.355 8.82-5.504 2.774-2.19 6.103-3.292 8.558-.834 2.527 2.53 5.082 6.09 1.451 10.003-1.146 1.236-1.308 2.625-.638 4.625-.288.641-.428.771-.568.9m-305.46-316.818c-8.343 10.976-17.388 21.394-25.186 32.813-16.127 23.615-31.814 47.472-44.823 73.002-2.304 4.52-5.022 8.576.071 12.947.94.807 1.64 2.218.322 3.525-.979.972-2.286 2.138-3.475 1.27-5.02-3.667-5.771 1.153-6.841 3.695-6.11 14.507-12.477 28.918-17.342 43.923-3.462 10.68-6.155 21.559-8.633 32.49-1.723 7.601-3.551 15.216-4.578 22.925-.82 6.166-.046 12.56-3.723 18.141-.549.833-.5 2.017.222 2.836 2.45 2.775 1.885 6.19 2.333 9.459.468 3.412-1.353 6.887-.544 9.805 2.74 9.883 1.778 20.293 5.022 30.094 2.717 8.208 3.978 16.839 7.77 24.789 1.41 2.954 3.234 5.692 4.442 8.79 2.429 6.227 5.15 12.45 13.75 11.743 2.112-.174 3.904.882 4.523 3.175.59 2.187-.628 3.413-2.362 4.415-.926.536-1.365 1.428-1.238 2.045 5.873 6.095 10.69 12.525 17.288 17.412 8.663 6.416 17.003 13.316 27.372 16.68 7.165 2.325 13.381 7.852 21.62 6.679 12.345 8.083 26.848 6.112 40.398 8.387 7.32 1.228 12.138-3.6 12.22-10.846.194-17.323.119-34.65.163-51.975.034-13.809-1.702-27.591-.33-41.433.412-4.151-1.175-6.512-6.152-8.35-21.987-8.124-36.158-23.942-42.905-46.573-2.778-9.318-2.642-18.69-2.486-28.149.205-12.479 1.525-24.406 8.43-35.656 8.456-13.78 19.1-24.554 33.67-31.444 8.232-3.893 8.865-4.958 8.036-14.18-.134-1.49-.103-2.997-.11-4.496-.054-12.31-.259-24.61-.967-36.909-.385-6.675-.463-13.41.849-20.064 4.19 22.453.383 45.378 3.766 68.554 2.338-.911 3.861-1.466 5.355-2.093 11.18-4.69 21.995-10.202 33.711-13.675 13.84-4.102 27.892-7.477 41.552-12.225 4.525-1.573 5.893-4.031 5.355-8.584-.64-5.42-.979-10.917.063-16.358.305-1.595.715-4.12 2.841-3.091 6.302 3.051 13.201 1.188 19.613 2.937 1.696.462 3.04.962 3.734 2.817 2.323 6.207 2.99 6.327 7.968 1.93.487-.43 1.085-.844 1.699-1.001 9.059-2.32 14.541-9.737 20.917-15.493 11.686-10.55 21.823-22.406 29.77-36.403 7.857-13.84 12.657-29.283 22.446-42.049.388-.506.563-1.214.711-1.858 1.12-4.841 3.626-8.758 7.474-11.93 2.17-1.787 4.211-3.84 5.348-6.467.836-1.932 2.083-4.23.525-6.131-1.432-1.748-3.95-2.048-6.045-1.533-8.152 2.004-17.302 4.692-21.812 10.993-4.449 6.213-13.225 5.94-15.702 13.362-7.278 1.575-9.332 8.47-13.34 13.3-6.457 7.783-11.864 16.448-20.692 22.078-7.696 4.908-16.19 6.442-24.77 4.91-8.004-1.43-15.137-5.924-20.93-11.59-6.962-6.81-9.456-14.901-5.967-24.906 3.549-10.175 11.21-16.3 19.03-22.45 12.758-10.03 28.064-15.036 42.805-21.134 11.188-4.629 22.844-8.333 32.004-16.89 2.822-2.636 6.298-3.896 10.393-4.21 8.101-.621 16.495-9.309 17.53-17.435.885-6.942-1.718-13.491-2.404-20.262-.532-5.244-4.436-7.393-9.315-5.347-3.53 1.48-6.846 3.567-10.47 4.708-12.465 3.921-24.228-.976-33.459-14.971-3.997-6.062-1.531-11.886-.846-17.825.516-4.462.291-8.107-5.173-8.48-.401-2.038 2.529-1.332 2.045-3.152-7.404-2.985-11.929-3.485-15.553.024-4.313 4.176-9.953 5.921-14.576 9.501-9.693 7.507-20.067 14.06-29.06 22.583-2.43 2.302-3.41 6.447-7.127 7.058-3.335.547-5.954 2.176-8.365 4.19-12.226 10.205-25.236 19.544-35.557 31.874-.037 1.143 2.041 1.463 1.116 3.004-2.34 1.077-5.24-.252-7.484 1.942-8.919 8.72-18.476 16.845-26.854 26.048-13.171 14.466-26.412 28.902-39.076 44.765m-191.817-6.531c.386 5.084 1.87 10.112-.006 15.276-.858 2.362 1.327 3.27 3.165 3.436 12.355 1.108 24.8 2.398 34.161-8.881-8.814-7.188-18.665-13.377-28.661-19.217-34.996-20.45-71.373-37.833-110.569-48.87-12.472-3.513-24.977-6.604-37.908-7.803-2.52-.233-4.577-.214-5.611 2.702-1.222 3.447-2.835 6.754-4.085 10.192-2.268 6.237-.434 10.21 5.728 12.61 4.19 1.631 8.434 3.123 12.618 4.768 2.538.997 5.017 2.375 5.613 5.254 2.194 10.605 8.395 18.202 17.334 23.879 3.616 2.296 6.172 5.5 7.934 9.418.881 1.959 1.717 4.227 3.263 5.55 9.46 8.101 14.891 19.062 21.476 29.24 3.246 5.02 3.669 9.834 1.012 15.022-1.137 2.222-2.6 4.285-3.641 6.546-2.604 5.657-6.216 11.12-3.2 17.868 2.736 6.123 2.497 12.69 2.25 19.186-.17 4.464 1.47 7.665 5.423 9.851 3.464 1.915 7.234 3.637 10.005 6.332 2.213 2.153 3.564 4.631 6.79 2.541 1.424 1.455 1.511 2.997 1.85 4.445.546 2.334 1.093 4.95 4.26 4.437 3.542-.573 2.359-3.402 2.066-5.593-.267-1.997-1.327-4.008.563-6.627 1.773 5.3 5.154 7.238 9.976 7.531 3.798.23 5.922 2.97 6.596 6.539 1.95 10.33 6.214 19.022 16.606 23.855-2.9 2.68-6.267 1.577-9.216 2.068-7.552 1.257-15.131 2.87-22.804 2.48-4.071-.206-9.186.234-11.709-3.39-1.68-2.411-3.095-3.9-5.817-4.576-17.765-4.42-35.51-8.925-53.274-13.348-1.677-.418-3.476-1.251-5.369.232.598 2.585 2.786 3.08 4.8 3.638 2.427.674 5.042 1.197 6.813 2.958 3.58 3.558 7.867 5.131 12.677 6.296 11.757 2.847 22.901 8.094 35.305 8.496 2.85.093 6.336 1.048 8.33 2.9 4.23 3.922 9.005 4.582 14.287 4.607 3.456.016 6.959-.346 10.265 1.419a73.616 73.616 0 0 0 16.252 6.31c16.914 4.37 33.873 8.567 50.835 12.747 2.15.53 4.398 1.24 6.706.584-1.64-10.642-1.189-10.042-9.803-11.777-3.098-.625-6.224-1.18-9.255-2.054-3.879-1.118-8.128-1.457-12.01-5.065 5.145-1.693 9.728-1.156 14.26-1.31 4.752-.163 9.186.07 11.274 5.767 1.573-2.375.891-3.79.5-5.215-4.025-14.672-7.967-29.368-12.103-44.009-2.066-7.316-9.502-9.732-14.117-14.74-.261-.284-.965-.285-1.44-.228-9.238 1.122-18.433-2.199-27.691-.267-1.05.219-2.379.183-3.114-1.233.074-.386.037-.944.286-1.307.361-.529.88-.987 1.415-1.355 9.789-6.758 20.637-5.238 30.063-.99 10.53 4.746 18.095 14.276 23.89 24.174 8.378 14.312 11.033 30.945 16.665 46.398 1.586 4.35.081 10.129 2.077 13.447 4.062 6.754 3.876 14.392 6.584 21.37 3.324 8.567 6.566 17.403 8.561 26.525.312 1.423.574 3.747 3.01 3.12 2.485-.638 1.391-2.882 1.093-4.22-1.39-6.241-.305-12.16 1.39-18.176 1.662-5.895 3.001-11.917 4.303-17.877 3.064-14.023 7.632-27.506 12.818-40.804 7.175-18.403 14.933-36.56 24.364-53.952.819-1.511 1.542-2.905-.045-4.49-9.259-9.241-17.594-19.497-30.502-24.326-6.854-2.563-13.68-4.95-20.765-6.866-10.735-2.903-20.98-3.167-31.644.572-9.057 3.176-18.173 6.225-27.268 9.311-2.934.996-5.275 2.57-7.733 4.311-5.297 3.753-8.723 9.675-14.858 12.459-1.529.694-2.61 1.258-3.98-.052-1.443-1.379-1.524-2.811-.567-4.487 1.713-3.002 4.153-5.139 7.279-6.597 2.56-1.194 5.029-2.486 6.722-4.975 3.824-5.62 8.538-9.743 15.469-11.731 7.768-2.229 7.81-3.3 4.377-10.343-.073-.15-.155-.296-.216-.45-.493-1.27-1.07-2.712.36-3.597 1.451-.897 2.514.254 3.341 1.331 1.762 2.297 3.455 4.646 5.177 6.973-2.156-7.285-6.903-13.21-8.82-20.487-.488-1.857-2.53-2.488-4.468-2.696-1.65-.177-3.765-.156-4.301-1.957-1.333-4.475-4.473-7.137-8.249-9.354-.221-.13-.256-.578-.364-.845.208-1.358 2.311-.693 2.32-2.224-4.254-3.906-3.678-13.625 1.5-21.61.408.898.722 1.59 1.126 3m283.77 298.759c-16.708 5.882-33.525 3.709-50.403-.281v60.923c4.6-4.421 8.962-7.829 14.56-8.653 18.076-2.663 34.6 2.215 50.257 10.88 1.667.924 3.415 1.236 5.265 1.32 3.01.14 6.348.136 8.699 1.809 3.175 2.26 6.466 3.045 10.151 3.502 2.242.279 4.345 1.199 5.508 3.71 2.373 5.125 7.074 7.5 11.572 6.224 4.35-1.233 7.88-6.794 7.394-11.82-.815-8.414.817-16.038 6.348-22.755 5.572-6.766 4.76-12.022-2.153-17.465-4.684-3.688-9.942-6.87-12.129-12.903-1.247-3.442-3.376-5.509-7.29-5.7-1.807-.088-3.865-.542-4.933-2.605 3.465-2.46 6.889-1.59 10.345-1.066 3.038.46 5.735-.391 7.119-3.378 1.298-2.799.39-5.65-1.888-7.177-8.189-5.49-16.208-12.188-27.218-7.027a88.624 88.624 0 0 1-6.894 2.861c-7.92 2.928-15.396 6.977-24.31 9.6M351.074 575.286c-9.687-1.097-19.053 3.158-29.215.99 2.144 7.164 9.903 4.538 13.486 9.198-1.246.087-1.91.268-2.521.156-4.99-.918-6.678.715-6.495 6.111.215 6.318-3.408 11.24-8.987 14.345-11.68 6.501-23.968 6.944-36.639 3.498-1.475-.401-3.326-1.555-4.61.165-1.322 1.767.394 3.113 1.238 4.43 5.877 9.172 13.26 16.881 21.555 24.007 15.875 13.636 31.975 26.81 50.26 37.223 4.065 2.315 9.058 2.777 12.319 5.8 4.66 4.323 10.732 4.054 15.937 6.397 1.837.827 3.372-.585 4.63-2.132 2.936-3.608 5.852-7.258 9.084-10.592 2.62-2.703 3.669-5.699 3.859-9.39.493-9.586-3.151-18.23-6.297-26.848-4.733-12.969-9.495-25.893-13.26-39.196-2.427-8.578-2.78-18.31-11.865-24.008-3.633 2.898-7.605.303-12.479-.154m520.014-313.598c-.345-.558-.984-1.112-.991-1.675-.086-6.608-.061-6.607-6.737-6.993-1.945-.113-4.657.531-5.69-.5-3.214-3.213-7.526-2.036-9.763-.903-11.508 5.83-22.985 12.073-30.436 23.255-2.381 3.573-5.336 7.154-4.65 11.897 2.222.745 4.428-1.961 5.855.46.975 1.653.283 3.58-1.018 5.068-.434.496-1.054.826-1.498 1.315-8.151 8.974-8.225 11.755-.802 21.037.795.995 1.592 2.395 1.552 3.578-.151 4.423 2.802 7.774 3.737 11.799.255 1.095.904 2.237 2.3 2.331 1.39.094 1.98-.998 2.632-1.974 3.105-4.65 4.23-9.59 2.971-15.182-1.378-6.128-.952-12.24 1.313-18.172.68-1.777 1.536-3.957 3.54-3.675 4.5.632 8.468-.639 12.497-2.213.926-.361 2.018-.093 2.206 1.288-.187.268-.316.636-.57.782-.568.327-1.175.652-1.807.787-6.84 1.461-10.255 6.386-11.126 12.63-1.124 8.063-1.352 16.234 1.726 24.152 1.333 3.432 3.375 5.256 7.025 5.1 3.11-.134 5.232 1.116 7.126 3.659 4.117 5.527 9.522 6.552 15.92 3.779 15.358-6.657 23.431-20.667 33.288-32.865 1.009-1.249 1.57-3.002-.033-4.522-1.445-1.37-2.757-3.129-5.105-1.966-3.059 1.515-5.57.467-8.423-.954-3.061-1.526-5.372-3.853-8.047-5.783-8.771-6.332-12.07-19.67-7.26-29.188.9-1.784 2.773-3.648.268-6.352m-101.574 3.23c-2.022 4.433-5.567 7.953-9.614 9.806-5.383 2.464-4.237 5.313-2.347 9.005 2.962 5.788 5.778 11.614 6.75 18.165.818 5.516 3.918 6.707 8.217 2.978a235.795 235.795 0 0 0 13.821-12.989c8.737-8.906 13.27-20.634 20.18-30.782 2.016-2.963 3.317-6.523 4.418-9.978 2.448-7.684-.334-11.045-8.18-11.257-4.33-.117-7.542 2.223-11.235 3.56-10.328 3.744-17.259 10.986-22.01 21.492M410.409 438.94c-1.531-1.35-1.942-.456-2.058 1.027-.13 1.68-1.805 3.673.401 4.934 3.122 1.784 6.178 3.952 10.818 4.173-2.708-4.184-5.857-6.847-9.16-10.134m147.906 344.573c1.866 1.64 2.745.094 3.204-1.257 1.107-3.259-1.849-4.296-3.411-6.545-1.394 2.797-.593 4.982.207 7.802z"/><path d="M822.156 710.77c2.187.264 2.786 2.191 1.808 3.16-2.306 2.285-3.299 6.267-7.823 6.54-.043-4.168 4.277-5.364 5.349-8.813.177-.432.317-.562.666-.887zM685.641 304.124c-2.086-4.876-4.58-9.304-4.574-14.386.003-2.883-1.032-6.867 3.632-7.358 3.345-.352 5.56 2.969 5.294 7.51-.326 5.58-.785 11.151-1.18 16.628-2.313.669-2.372-1.074-3.172-2.394zM666.467 274.732c-2.888-1.011-5.362-2.01-7.904-2.786-4.775-1.459-4.668-3.94-1.587-7.37 3.476 1.118 7.08 1.623 10.732 1.3 3.998-.354 6.589 2.593 10.518 3.8-3.665 3.049-6.78 5.688-11.759 5.056zM665.621 433.979c.553 2.931 1.147 5.5 1.409 8.102.147 1.47-.168 3.104-1.948 3.636-1.62.485-2.947-.293-3.985-1.453-2.55-2.85-3.111-6.644-2.216-9.828 1.037-3.683 4.096-2.963 6.74-.457zM452.562 738.06c1.108-6.278 7.83-9.21 14.255-5.92-4.158 3.76-8.684 5.774-14.255 5.92zM438.104 549.153c-1.029 1.21-2.184 1.692-3.08.003-1.572-2.962-3.153-5.967-2.907-10.068 3.364 2.341 2.46 6.178 4.93 8.901.642.664.856.908 1.057 1.164z"/><path d="M438.427 549.057c-.524-.16-.738-.404-1.14-.802.93-3.135 3.197-4.388 6.65-4.643-.51 3.24-3.248 3.93-5.51 5.445zM712.98 313.263c-.094 2.584.61 4.921-.83 7.704-1.505-3.403-1.677-6.207.04-9.04.022-.037.348.019.396.106.157.282.25.6.395 1.23zM327.967 400.769c.338-3.544.68-6.663 1.02-9.782.187-1.712.531-3.825 2.713-3.292 6.824 1.666 13.612 3.565 20.027 7.496-5.499 6.398-12.025 9.512-19.653 10.4-3.068.358-3.936-1.805-4.107-4.822zM293.874 385.976c-.57-.015-.739-.005-.899-.038-3.637-.754-8.068-.57-8.163-5.97-.035-1.965 7.192-4.22 10.572-3.198 3.146.952 2.937 4.42 4.616 6.399-1.44 2.379-3.523 2.72-6.126 2.807zM360.93 623.297c-.374 1.799-.078 3.44-1.6 4.374-2.738-4.906-2.271-29.12 1.242-32.92 1.112 9.787.325 18.975.357 28.546zM839.545 269.49c1.867-.828 3.361-1.554 4.912-2.13 1.44-.534 3.28-.916 4.003.68.917 2.025 3.072 3.792 2.24 6.335-.59 1.801-2.255 1.548-3.796 1.384-7.174-.763-13.321 1.842-18.9 6.027-1.99 1.492-3.862 2.994-6.882 2.837.714-2.634 2.924-3.362 4.448-4.693 1.976-1.726 4.433-2.346 5.198-5.934.61-2.86 5.472-2.972 8.777-4.505z"/></svg>